<mxfile host="app.diagrams.net" modified="2024-01-07T10:10:06.183Z" agent="Mozilla/5.0 (Windows NT 10.0; Win64; x64) AppleWebKit/537.36 (KHTML, like Gecko) Chrome/120.0.0.0 Safari/537.36 Edg/120.0.0.0" etag="NoF5LfkKqaoU6Grc2zx3" version="22.1.17" type="github">
  <diagram name="第 1 页" id="688hTWjERjYAhRFc9RfX">
    <mxGraphModel dx="1042" dy="535" grid="1" gridSize="10" guides="1" tooltips="1" connect="1" arrows="1" fold="1" page="1" pageScale="1" pageWidth="827" pageHeight="1169" math="0" shadow="0">
      <root>
        <mxCell id="0" />
        <mxCell id="1" parent="0" />
        <mxCell id="2pjO5wfH-iYFJIuhNtLP-1" value="" style="rounded=1;whiteSpace=wrap;html=1;" parent="1" vertex="1">
          <mxGeometry x="220" y="85" width="590" height="500" as="geometry" />
        </mxCell>
        <mxCell id="2pjO5wfH-iYFJIuhNtLP-2" value="数据库管理系统(mysql服务)" style="rounded=1;whiteSpace=wrap;html=1;" parent="1" vertex="1">
          <mxGeometry x="260" y="160" width="50" height="370" as="geometry" />
        </mxCell>
        <mxCell id="2pjO5wfH-iYFJIuhNtLP-11" style="rounded=0;orthogonalLoop=1;jettySize=auto;html=1;exitX=1;exitY=0.5;exitDx=0;exitDy=0;exitPerimeter=0;shape=link;" parent="1" source="2pjO5wfH-iYFJIuhNtLP-3" target="2pjO5wfH-iYFJIuhNtLP-5" edge="1">
          <mxGeometry relative="1" as="geometry" />
        </mxCell>
        <mxCell id="2pjO5wfH-iYFJIuhNtLP-3" value="&lt;font style=&quot;font-size: 22px;&quot;&gt;数据库&lt;/font&gt;" style="shape=cylinder3;whiteSpace=wrap;html=1;boundedLbl=1;backgroundOutline=1;size=15;" parent="1" vertex="1">
          <mxGeometry x="380" y="160" width="130" height="130" as="geometry" />
        </mxCell>
        <mxCell id="2pjO5wfH-iYFJIuhNtLP-4" value="" style="shape=cylinder3;whiteSpace=wrap;html=1;boundedLbl=1;backgroundOutline=1;size=15;" parent="1" vertex="1">
          <mxGeometry x="380" y="390" width="130" height="130" as="geometry" />
        </mxCell>
        <mxCell id="2pjO5wfH-iYFJIuhNtLP-13" style="rounded=0;orthogonalLoop=1;jettySize=auto;html=1;exitX=1;exitY=0.5;exitDx=0;exitDy=0;entryX=0;entryY=0.5;entryDx=0;entryDy=0;shape=link;" parent="1" source="2pjO5wfH-iYFJIuhNtLP-5" target="2pjO5wfH-iYFJIuhNtLP-6" edge="1">
          <mxGeometry relative="1" as="geometry" />
        </mxCell>
        <mxCell id="2pjO5wfH-iYFJIuhNtLP-14" style="rounded=0;orthogonalLoop=1;jettySize=auto;html=1;exitX=1;exitY=0.5;exitDx=0;exitDy=0;shape=link;" parent="1" source="2pjO5wfH-iYFJIuhNtLP-5" target="2pjO5wfH-iYFJIuhNtLP-7" edge="1">
          <mxGeometry relative="1" as="geometry" />
        </mxCell>
        <mxCell id="2pjO5wfH-iYFJIuhNtLP-5" value="&lt;font style=&quot;font-size: 18px;&quot;&gt;数据表&lt;/font&gt;" style="rounded=0;whiteSpace=wrap;html=1;" parent="1" vertex="1">
          <mxGeometry x="540" y="170" width="80" height="60" as="geometry" />
        </mxCell>
        <mxCell id="2pjO5wfH-iYFJIuhNtLP-6" value="数据" style="rounded=1;whiteSpace=wrap;html=1;" parent="1" vertex="1">
          <mxGeometry x="690" y="170" width="120" height="20" as="geometry" />
        </mxCell>
        <mxCell id="2pjO5wfH-iYFJIuhNtLP-7" value="数据" style="rounded=1;whiteSpace=wrap;html=1;" parent="1" vertex="1">
          <mxGeometry x="690" y="200" width="120" height="20" as="geometry" />
        </mxCell>
        <mxCell id="2pjO5wfH-iYFJIuhNtLP-9" value="" style="shape=flexArrow;endArrow=classic;html=1;rounded=0;width=23;endSize=9.96;" parent="1" edge="1">
          <mxGeometry width="50" height="50" relative="1" as="geometry">
            <mxPoint x="310" y="330" as="sourcePoint" />
            <mxPoint x="380" y="330" as="targetPoint" />
          </mxGeometry>
        </mxCell>
        <mxCell id="2pjO5wfH-iYFJIuhNtLP-17" style="rounded=0;orthogonalLoop=1;jettySize=auto;html=1;exitX=1;exitY=0.5;exitDx=0;exitDy=0;entryX=0;entryY=0.5;entryDx=0;entryDy=0;" parent="1" source="2pjO5wfH-iYFJIuhNtLP-15" target="2pjO5wfH-iYFJIuhNtLP-2" edge="1">
          <mxGeometry relative="1" as="geometry" />
        </mxCell>
        <mxCell id="2pjO5wfH-iYFJIuhNtLP-15" value="" style="image;html=1;image=img/lib/clip_art/computers/MacBook_128x128.png" parent="1" vertex="1">
          <mxGeometry x="30" y="120" width="80" height="80" as="geometry" />
        </mxCell>
        <mxCell id="2pjO5wfH-iYFJIuhNtLP-16" value="客户端（mysql.exe）" style="text;html=1;align=center;verticalAlign=middle;resizable=0;points=[];autosize=1;strokeColor=none;fillColor=none;" parent="1" vertex="1">
          <mxGeometry y="200" width="140" height="30" as="geometry" />
        </mxCell>
      </root>
    </mxGraphModel>
  </diagram>
</mxfile>
